<?xml version="1.0" encoding="UTF-8" standalone="no"?>
<!DOCTYPE svg PUBLIC "-//W3C//DTD SVG 1.1//EN" "http://www.w3.org/Graphics/SVG/1.1/DTD/svg11.dtd">
<svg width="100%" height="100%" viewBox="0 0 512 512" version="1.1" xmlns="http://www.w3.org/2000/svg" xmlns:xlink="http://www.w3.org/1999/xlink" xml:space="preserve" xmlns:serif="http://www.serif.com/" style="fill-rule:evenodd;clip-rule:evenodd;stroke-linejoin:round;stroke-miterlimit:2;">
    <g id="happy" transform="matrix(1.54021,0,0,1.54021,-138.291,-286.545)">
        <g transform="matrix(0.649262,0,0,0.649262,89.7872,186.043)">
            <path d="M512,128L512,384C512,454.645 454.645,512 384,512L128,512C57.355,512 0,454.645 0,384L0,128C0,57.355 57.355,0 128,0L384,0C454.645,0 512,57.355 512,128Z" style="fill:white;"/>
        </g>
        <g transform="matrix(1.20947,0,0,1.15345,0,0.000177726)">
            <path d="M142.305,330.132C155.119,329.876 165.594,334.846 165.709,341.233C165.825,347.62 155.538,352.988 142.723,353.245C129.909,353.502 119.435,348.55 119.32,342.162C119.204,335.776 129.491,330.389 142.305,330.132ZM193.679,342.538C199.381,340 205.446,338.731 211.501,338.731C217.557,338.731 223.623,340 229.325,342.539C228.629,343.616 227.842,344.637 226.969,345.588C224.948,347.788 222.538,349.515 219.903,350.693C217.258,351.877 214.405,352.507 211.503,352.513C208.6,352.507 205.745,351.877 203.102,350.693C200.468,349.515 198.058,347.788 196.036,345.588C195.162,344.637 194.375,343.615 193.679,342.538ZM280.352,330.131C293.166,330.388 303.453,335.774 303.337,342.161C303.222,348.548 292.748,353.5 279.934,353.244C267.119,352.987 256.832,347.619 256.948,341.232C257.064,334.845 267.538,329.874 280.352,330.131Z" style="fill:rgb(255,163,163);"/>
        </g>
        <path d="M140.123,303.913C147.462,293.806 158.731,287.316 171.327,287.316C186.11,287.316 199.063,296.253 205.983,309.486C209.373,315.968 211.315,323.48 211.315,331.478C211.315,355.803 193.351,375.643 171.327,375.643C149.304,375.643 131.34,355.803 131.34,331.478C131.34,321.066 134.631,311.477 140.123,303.913ZM306.029,309.485C307.054,307.53 308.21,305.669 309.484,303.917C316.823,293.824 328.083,287.346 340.669,287.346C353.254,287.346 364.514,293.824 371.854,303.917C373.128,305.669 374.284,307.53 375.308,309.485C378.708,315.974 380.656,323.498 380.656,331.508C380.656,355.835 362.692,375.673 340.669,375.673C318.646,375.673 300.681,355.835 300.681,331.508C300.681,323.498 302.63,315.974 306.029,309.485ZM191.48,308.64C189.218,306.872 186.436,305.827 183.434,305.827C175.885,305.827 169.727,312.435 169.727,320.537C169.727,328.64 175.885,335.248 183.434,335.248C190.984,335.248 197.141,328.64 197.141,320.537C197.141,315.656 194.907,311.318 191.48,308.64ZM346.327,307.595C342.015,310.078 339.071,314.966 339.071,320.568C339.071,328.671 345.228,335.279 352.776,335.279C360.326,335.279 366.483,328.671 366.483,320.568C366.483,315.667 364.231,311.312 360.779,308.637C358.525,306.889 355.759,305.858 352.777,305.858C350.448,305.858 348.251,306.487 346.327,307.595ZM255.579,371.155L255.626,371.15L255.716,371.149L255.896,371.149L255.985,371.15L256.033,371.155C258.327,371.254 260.382,371.077 262.368,370.723C264.511,370.34 266.48,369.787 268.541,369.157L270.13,368.646C272.739,367.807 275.643,366.872 278.67,366.601C285.516,365.99 291.33,368.228 292.354,378.653C292.382,378.84 292.395,379.034 292.403,379.225C292.561,384.198 291.712,389.098 289.963,393.648C288.212,398.2 285.563,402.399 282.127,405.965C278.675,409.551 274.573,412.355 270.104,414.263C265.641,416.167 260.783,417.182 255.806,417.191C250.828,417.182 245.969,416.167 241.508,414.263C237.037,412.355 232.939,409.548 229.486,405.965C226.049,402.399 223.401,398.2 221.65,393.648C219.901,389.098 219.052,384.198 219.208,379.225C219.215,379.034 219.231,378.84 219.256,378.653C220.283,368.228 226.097,365.99 232.943,366.601C235.968,366.872 238.871,367.807 241.482,368.646L243.071,369.157C245.132,369.787 247.103,370.34 249.245,370.723C251.229,371.077 253.285,371.254 255.579,371.155ZM234.249,395.1C235.091,396.343 236.043,397.521 237.1,398.618C239.545,401.156 242.46,403.148 245.646,404.507C248.842,405.872 252.295,406.599 255.806,406.606C259.316,406.599 262.767,405.872 265.966,404.507C269.153,403.148 272.068,401.156 274.512,398.618C275.568,397.521 276.52,396.344 277.362,395.101C270.465,392.173 263.129,390.709 255.804,390.709C248.481,390.709 241.145,392.173 234.249,395.1Z" style="fill:rgb(46,48,68);"/>
    </g>
</svg>
