<?xml version="1.0" encoding="UTF-8" standalone="no"?>
<!DOCTYPE svg PUBLIC "-//W3C//DTD SVG 1.1//EN" "http://www.w3.org/Graphics/SVG/1.1/DTD/svg11.dtd">
<svg width="100%" height="100%" viewBox="0 0 512 512" version="1.1" xmlns="http://www.w3.org/2000/svg" xmlns:xlink="http://www.w3.org/1999/xlink" xml:space="preserve" xmlns:serif="http://www.serif.com/" style="fill-rule:evenodd;clip-rule:evenodd;stroke-linejoin:round;stroke-miterlimit:2;">
    <g>
        <rect id="BACKDROP" x="0" y="0" width="512" height="512" style="fill:white;"/>
        <g id="NEW-COLOR-SCHEME" serif:id="NEW COLOR SCHEME" transform="matrix(1,0,0,1,0,10)">
            <path d="M384,300C410.492,300 432,310.754 432,324C432,337.246 410.492,348 384,348C357.508,348 336,337.246 336,324C336,310.754 357.508,300 384,300ZM128,300C154.492,300 176,310.754 176,324C176,337.246 154.492,348 128,348C101.508,348 80,337.246 80,324C80,310.754 101.508,300 128,300ZM224.743,319.583C233.143,312.365 244.066,308 256,308C267.934,308 278.857,312.365 287.257,319.583C279.257,327.265 268.171,332 256,332C243.829,332 232.743,327.265 224.743,319.583Z" style="fill:rgb(250,110,129);"/>
            <path d="M256,275.625C271,275.625 291,265.975 301,268.387C309.745,270.497 316,275.429 316,290.1C316,322.056 289.115,348 256,348C222.885,348 196,322.056 196,290.1C196,275.429 202.255,270.497 211,268.387C221,265.975 241,275.625 256,275.625ZM224.743,319.583C232.743,327.265 243.829,332 256,332C268.171,332 279.257,327.265 287.257,319.583C278.857,312.365 267.934,308 256,308C244.066,308 233.143,312.365 224.743,319.583ZM384,144C419.323,144 448,176.262 448,216C448,255.738 419.323,288 384,288C348.677,288 320,255.738 320,216C320,176.262 348.677,144 384,144ZM404,176C392.962,176 384,184.962 384,196C384,207.038 392.962,216 404,216C415.038,216 424,207.038 424,196C424,184.962 415.038,176 404,176ZM128,144C163.323,144 192,176.262 192,216C192,255.738 163.323,288 128,288C92.677,288 64,255.738 64,216C64,176.262 92.677,144 128,144ZM148,176C136.962,176 128,184.962 128,196C128,207.038 136.962,216 148,216C159.038,216 168,207.038 168,196C168,184.962 159.038,176 148,176Z" style="fill:rgb(16,24,43);"/>
        </g>
    </g>
</svg>
